<svg width="37" height="38" viewBox="0 0 37 38" fill="none" xmlns="http://www.w3.org/2000/svg">
<g clip-path="url(#clip0_175_1150)">
<path d="M18.5002 3.58337C9.99016 3.58337 3.0835 10.49 3.0835 19C3.0835 27.51 9.99016 34.4167 18.5002 34.4167C27.0102 34.4167 33.9168 27.51 33.9168 19C33.9168 10.49 27.0102 3.58337 18.5002 3.58337ZM18.5002 9.75004C21.4756 9.75004 23.896 12.1705 23.896 15.1459C23.896 18.1213 21.4756 20.5417 18.5002 20.5417C15.5247 20.5417 13.1043 18.1213 13.1043 15.1459C13.1043 12.1705 15.5247 9.75004 18.5002 9.75004ZM18.5002 31.3334C15.3706 31.3334 11.6706 30.0692 9.03433 26.8934C11.6397 24.8584 14.9235 23.625 18.5002 23.625C22.0768 23.625 25.3606 24.8584 27.966 26.8934C25.3297 30.0692 21.6297 31.3334 18.5002 31.3334Z" fill="#E8EAED"/>
</g>
<defs>
<clipPath id="clip0_175_1150">
<rect width="37" height="37" fill="white" transform="translate(0 0.5)"/>
</clipPath>
</defs>
</svg>
