<svg width="187" height="40" viewBox="0 0 187 40" fill="none" xmlns="http://www.w3.org/2000/svg">
<path fill-rule="evenodd" clip-rule="evenodd" d="M8.46558 5.22636C7.21375 6.12669 6.08176 7.19116 5.09909 8.38944C9.11473 8.00598 14.2165 8.63213 20.1395 11.6783C26.4646 14.9311 31.5578 15.0411 35.1024 14.3378C34.7807 13.3362 34.3758 12.3735 33.8962 11.4584C29.8386 11.8986 24.6367 11.316 18.5743 8.19826C14.7247 6.21844 11.3312 5.40289 8.46558 5.22636ZM31.5259 7.98827C28.3216 4.30578 23.6649 1.98828 18.4819 1.98828C16.9599 1.98828 15.483 2.18818 14.0751 2.56381C15.982 3.09896 18.0076 3.88187 20.1395 4.97832C24.578 7.26096 28.41 7.99592 31.5259 7.98827ZM35.8602 17.8536C31.578 18.7233 25.6646 18.5447 18.5743 14.8982C11.9457 11.4892 6.66982 11.5321 3.1116 12.3455C2.92794 12.3874 2.7486 12.4315 2.57359 12.4774C2.10773 13.5195 1.73586 14.6154 1.46905 15.7533C1.75402 15.675 2.0485 15.6006 2.35233 15.5311C6.66906 14.5444 12.7682 14.5873 20.1395 18.3783C26.7683 21.7873 32.0441 21.7444 35.6024 20.931C35.7242 20.9032 35.8444 20.8744 35.9625 20.8447C35.9755 20.5609 35.9819 20.2754 35.9819 19.9883C35.9819 19.266 35.9406 18.5537 35.8602 17.8536ZM35.3911 24.6433C31.1504 25.4059 25.4093 25.1132 18.5743 21.5982C11.9457 18.1892 6.66982 18.2321 3.1116 19.0454C2.32178 19.2259 1.61127 19.4457 0.984497 19.6779C0.982788 19.7811 0.981934 19.8846 0.981934 19.9883C0.981934 29.9294 8.81695 37.9883 18.4819 37.9883C26.5819 37.9883 33.3966 32.3281 35.3911 24.6433Z" fill="#027CC0"/>
<path d="M48.2774 8.21555H53.4365L60.3456 25.0792H60.6183L67.5274 8.21555H72.6865V31.4883H68.641V15.4996H68.4251L61.9933 31.4201H58.9706L52.5388 15.4656H52.3228V31.4883H48.2774V8.21555ZM84.8228 31.8292C83.0728 31.8292 81.5615 31.4656 80.2888 30.7383C79.0236 30.0034 78.0501 28.9656 77.3683 27.6246C76.6865 26.2762 76.3456 24.689 76.3456 22.8633C76.3456 21.0678 76.6865 19.4921 77.3683 18.136C78.0577 16.7724 79.0198 15.7118 80.2547 14.9542C81.4895 14.189 82.9403 13.8065 84.6069 13.8065C85.6827 13.8065 86.6978 13.9807 87.6524 14.3292C88.6145 14.6701 89.463 15.2004 90.1978 15.9201C90.9403 16.6398 91.5236 17.5565 91.9478 18.6701C92.3721 19.7762 92.5842 21.0943 92.5842 22.6246V23.886H78.2774V21.1133H88.641C88.6334 20.3254 88.463 19.6246 88.1297 19.011C87.7963 18.3898 87.3304 17.9012 86.7319 17.5451C86.141 17.189 85.4516 17.011 84.6638 17.011C83.8228 17.011 83.0842 17.2156 82.4478 17.6246C81.8115 18.0262 81.3153 18.5565 80.9592 19.2156C80.6107 19.8671 80.4327 20.583 80.4251 21.3633V23.7837C80.4251 24.7989 80.6107 25.6701 80.9819 26.3974C81.3531 27.1171 81.8721 27.6701 82.5388 28.0565C83.2054 28.4353 83.9857 28.6246 84.8797 28.6246C85.4781 28.6246 86.0198 28.5413 86.5047 28.3746C86.9895 28.2004 87.41 27.9466 87.766 27.6133C88.1221 27.2799 88.391 26.8671 88.5728 26.3746L92.4138 26.8065C92.1713 27.8216 91.7092 28.708 91.0274 29.4656C90.3531 30.2156 89.4895 30.7989 88.4365 31.2156C87.3834 31.6246 86.1789 31.8292 84.8228 31.8292ZM102.542 31.7951C101.17 31.7951 99.9431 31.4428 98.8598 30.7383C97.7764 30.0337 96.9204 29.011 96.2916 27.6701C95.6628 26.3292 95.3484 24.7004 95.3484 22.7837C95.3484 20.8443 95.6666 19.208 96.303 17.8746C96.9469 16.5337 97.8143 15.5224 98.9052 14.8406C99.9961 14.1512 101.212 13.8065 102.553 13.8065C103.576 13.8065 104.417 13.9807 105.076 14.3292C105.735 14.6701 106.258 15.083 106.644 15.5678C107.03 16.0451 107.329 16.4959 107.542 16.9201H107.712V8.21555H111.837V31.4883H107.792V28.7383H107.542C107.329 29.1625 107.023 29.6133 106.621 30.0906C106.22 30.5603 105.689 30.9618 105.03 31.2951C104.371 31.6284 103.542 31.7951 102.542 31.7951ZM103.689 28.4201C104.561 28.4201 105.303 28.1853 105.917 27.7156C106.53 27.2383 106.996 26.5754 107.314 25.7269C107.633 24.8784 107.792 23.8898 107.792 22.761C107.792 21.6322 107.633 20.6512 107.314 19.8178C107.004 18.9845 106.542 18.3368 105.928 17.8746C105.322 17.4125 104.576 17.1815 103.689 17.1815C102.773 17.1815 102.008 17.4201 101.394 17.8974C100.78 18.3746 100.318 19.0337 100.008 19.8746C99.6969 20.7156 99.5416 21.6777 99.5416 22.761C99.5416 23.8519 99.6969 24.8254 100.008 25.6815C100.326 26.5299 100.792 27.2004 101.405 27.6928C102.026 28.1777 102.788 28.4201 103.689 28.4201ZM116.402 31.4883V8.21555H131.311V11.7496H120.618V18.0678H130.289V21.6019H120.618V31.4883H116.402ZM139.084 8.21555V31.4883H134.971V8.21555H139.084ZM150.928 31.8292C149.223 31.8292 147.746 31.4542 146.496 30.7042C145.246 29.9542 144.276 28.9049 143.587 27.5565C142.905 26.208 142.564 24.6322 142.564 22.8292C142.564 21.0262 142.905 19.4466 143.587 18.0906C144.276 16.7345 145.246 15.6815 146.496 14.9315C147.746 14.1815 149.223 13.8065 150.928 13.8065C152.633 13.8065 154.11 14.1815 155.36 14.9315C156.61 15.6815 157.576 16.7345 158.258 18.0906C158.947 19.4466 159.292 21.0262 159.292 22.8292C159.292 24.6322 158.947 26.208 158.258 27.5565C157.576 28.9049 156.61 29.9542 155.36 30.7042C154.11 31.4542 152.633 31.8292 150.928 31.8292ZM150.951 28.5337C151.875 28.5337 152.648 28.2799 153.269 27.7724C153.89 27.2572 154.352 26.5678 154.655 25.7042C154.966 24.8406 155.121 23.8784 155.121 22.8178C155.121 21.7496 154.966 20.7837 154.655 19.9201C154.352 19.0489 153.89 18.3557 153.269 17.8406C152.648 17.3254 151.875 17.0678 150.951 17.0678C150.004 17.0678 149.216 17.3254 148.587 17.8406C147.966 18.3557 147.5 19.0489 147.189 19.9201C146.886 20.7837 146.735 21.7496 146.735 22.8178C146.735 23.8784 146.886 24.8406 147.189 25.7042C147.5 26.5678 147.966 27.2572 148.587 27.7724C149.216 28.2799 150.004 28.5337 150.951 28.5337ZM165.885 31.4883L160.954 14.0337H165.147L168.215 26.3065H168.374L171.51 14.0337H175.658L178.794 26.2383H178.965L181.988 14.0337H186.192L181.249 31.4883H176.965L173.692 19.6928H173.454L170.181 31.4883H165.885Z" fill="#027CC0"/>
</svg>
