<svg width="245" height="94" viewBox="0 0 245 94" fill="none" xmlns="http://www.w3.org/2000/svg">
<path fill-rule="evenodd" clip-rule="evenodd" d="M37.5401 33.0582C36.3578 33.9085 35.2887 34.9138 34.3606 36.0455C38.1531 35.6834 42.9714 36.2747 48.5654 39.1517C54.5391 42.2238 59.3493 42.3276 62.697 41.6634C62.3933 40.7175 62.0108 39.8083 61.5579 38.944C57.7256 39.3598 52.8128 38.8095 47.0872 35.865C43.4514 33.9952 40.2465 33.2249 37.5401 33.0582ZM59.3193 35.6667C56.2929 32.1887 51.895 30 46.9999 30C45.5624 30 44.1676 30.1888 42.838 30.5436C44.6389 31.049 46.5519 31.7884 48.5654 32.8239C52.7574 34.9797 56.3765 35.6739 59.3193 35.6667ZM63.4128 44.9839C59.3684 45.8053 53.7836 45.6366 47.0872 42.1927C40.8268 38.9731 35.8441 39.0136 32.4835 39.7818C32.3101 39.8214 32.1407 39.863 31.9754 39.9064C31.5354 40.8906 31.1842 41.9256 30.9322 43.0003C31.2014 42.9264 31.4795 42.8561 31.7664 42.7904C35.8433 41.8586 41.6037 41.8991 48.5654 45.4794C54.8259 48.6991 59.8086 48.6585 63.1692 47.8904C63.2844 47.8641 63.3978 47.8369 63.5094 47.8088C63.5216 47.5408 63.5277 47.2711 63.5277 47C63.5277 46.3179 63.4887 45.6451 63.4128 44.9839ZM62.9697 51.3964C58.9647 52.1167 53.5425 51.8402 47.0872 48.5205C40.8268 45.3008 35.8441 45.3414 32.4835 46.1095C31.7376 46.28 31.0665 46.4876 30.4746 46.7068C30.473 46.8043 30.4722 46.9021 30.4722 47C30.4722 56.3888 37.8719 64 46.9999 64C54.6499 64 61.086 58.6543 62.9697 51.3964Z" fill="#027CC0"/>
<path d="M75.8233 36.2273H80.9824L87.8915 53.0909H88.1642L95.0733 36.2273H100.232V59.5H96.1869V43.5114H95.971L89.5392 59.4318H86.5165L80.0847 43.4773H79.8687V59.5H75.8233V36.2273ZM112.369 59.8409C110.619 59.8409 109.107 59.4773 107.835 58.75C106.569 58.0152 105.596 56.9773 104.914 55.6364C104.232 54.2879 103.891 52.7008 103.891 50.875C103.891 49.0795 104.232 47.5038 104.914 46.1477C105.604 44.7841 106.566 43.7235 107.801 42.9659C109.035 42.2008 110.486 41.8182 112.153 41.8182C113.229 41.8182 114.244 41.9924 115.198 42.3409C116.16 42.6818 117.009 43.2121 117.744 43.9318C118.486 44.6515 119.069 45.5682 119.494 46.6818C119.918 47.7879 120.13 49.1061 120.13 50.6364V51.8977H105.823V49.125H116.187C116.179 48.3371 116.009 47.6364 115.676 47.0227C115.342 46.4015 114.876 45.9129 114.278 45.5568C113.687 45.2008 112.998 45.0227 112.21 45.0227C111.369 45.0227 110.63 45.2273 109.994 45.6364C109.357 46.0379 108.861 46.5682 108.505 47.2273C108.157 47.8788 107.979 48.5947 107.971 49.375V51.7955C107.971 52.8106 108.157 53.6818 108.528 54.4091C108.899 55.1288 109.418 55.6818 110.085 56.0682C110.751 56.447 111.532 56.6364 112.426 56.6364C113.024 56.6364 113.566 56.553 114.051 56.3864C114.535 56.2121 114.956 55.9583 115.312 55.625C115.668 55.2917 115.937 54.8788 116.119 54.3864L119.96 54.8182C119.717 55.8333 119.255 56.7197 118.573 57.4773C117.899 58.2273 117.035 58.8106 115.982 59.2273C114.929 59.6364 113.725 59.8409 112.369 59.8409ZM130.087 59.8068C128.716 59.8068 127.489 59.4545 126.406 58.75C125.322 58.0455 124.466 57.0227 123.837 55.6818C123.209 54.3409 122.894 52.7121 122.894 50.7955C122.894 48.8561 123.212 47.2197 123.849 45.8864C124.493 44.5455 125.36 43.5341 126.451 42.8523C127.542 42.1629 128.758 41.8182 130.099 41.8182C131.122 41.8182 131.962 41.9924 132.622 42.3409C133.281 42.6818 133.803 43.0947 134.19 43.5795C134.576 44.0568 134.875 44.5076 135.087 44.9318H135.258V36.2273H139.383V59.5H135.337V56.75H135.087C134.875 57.1742 134.569 57.625 134.167 58.1023C133.766 58.572 133.235 58.9735 132.576 59.3068C131.917 59.6402 131.087 59.8068 130.087 59.8068ZM131.235 56.4318C132.106 56.4318 132.849 56.197 133.462 55.7273C134.076 55.25 134.542 54.5871 134.86 53.7386C135.178 52.8902 135.337 51.9015 135.337 50.7727C135.337 49.6439 135.178 48.6629 134.86 47.8295C134.55 46.9962 134.087 46.3485 133.474 45.8864C132.868 45.4242 132.122 45.1932 131.235 45.1932C130.319 45.1932 129.553 45.4318 128.94 45.9091C128.326 46.3864 127.864 47.0455 127.553 47.8864C127.243 48.7273 127.087 49.6894 127.087 50.7727C127.087 51.8636 127.243 52.8371 127.553 53.6932C127.872 54.5417 128.337 55.2121 128.951 55.7045C129.572 56.1894 130.334 56.4318 131.235 56.4318ZM143.948 59.5V36.2273H158.857V39.7614H148.164V46.0795H157.835V49.6136H148.164V59.5H143.948ZM166.63 36.2273V59.5H162.516V36.2273H166.63ZM178.474 59.8409C176.769 59.8409 175.292 59.4659 174.042 58.7159C172.792 57.9659 171.822 56.9167 171.133 55.5682C170.451 54.2197 170.11 52.6439 170.11 50.8409C170.11 49.0379 170.451 47.4583 171.133 46.1023C171.822 44.7462 172.792 43.6932 174.042 42.9432C175.292 42.1932 176.769 41.8182 178.474 41.8182C180.178 41.8182 181.656 42.1932 182.906 42.9432C184.156 43.6932 185.122 44.7462 185.803 46.1023C186.493 47.4583 186.837 49.0379 186.837 50.8409C186.837 52.6439 186.493 54.2197 185.803 55.5682C185.122 56.9167 184.156 57.9659 182.906 58.7159C181.656 59.4659 180.178 59.8409 178.474 59.8409ZM178.497 56.5455C179.421 56.5455 180.194 56.2917 180.815 55.7841C181.436 55.2689 181.898 54.5795 182.201 53.7159C182.512 52.8523 182.667 51.8902 182.667 50.8295C182.667 49.7614 182.512 48.7955 182.201 47.9318C181.898 47.0606 181.436 46.3674 180.815 45.8523C180.194 45.3371 179.421 45.0795 178.497 45.0795C177.55 45.0795 176.762 45.3371 176.133 45.8523C175.512 46.3674 175.046 47.0606 174.735 47.9318C174.432 48.7955 174.281 49.7614 174.281 50.8295C174.281 51.8902 174.432 52.8523 174.735 53.7159C175.046 54.5795 175.512 55.2689 176.133 55.7841C176.762 56.2917 177.55 56.5455 178.497 56.5455ZM193.431 59.5L188.499 42.0455H192.693L195.761 54.3182H195.92L199.056 42.0455H203.204L206.34 54.25H206.511L209.534 42.0455H213.738L208.795 59.5H204.511L201.238 47.7045H200.999L197.727 59.5H193.431Z" fill="#027CC0"/>
</svg>
