<svg width="139" height="24" viewBox="0 0 139 24" fill="none" xmlns="http://www.w3.org/2000/svg">
<path d="M0.277388 0.215553H5.43648L12.3456 17.0792H12.6183L19.5274 0.215553H24.6865V23.4883H20.641V7.49964H20.4251L13.9933 23.4201H10.9706L4.53875 7.46555H4.32284V23.4883H0.277388V0.215553ZM36.8228 23.8292C35.0728 23.8292 33.5615 23.4656 32.2888 22.7383C31.0236 22.0034 30.0501 20.9656 29.3683 19.6246C28.6865 18.2762 28.3456 16.689 28.3456 14.8633C28.3456 13.0678 28.6865 11.4921 29.3683 10.136C30.0577 8.77237 31.0198 7.71177 32.2547 6.95419C33.4895 6.18904 34.9403 5.80646 36.6069 5.80646C37.6827 5.80646 38.6978 5.98071 39.6524 6.32919C40.6145 6.6701 41.463 7.2004 42.1978 7.9201C42.9403 8.6398 43.5236 9.55646 43.9478 10.6701C44.3721 11.7762 44.5842 13.0943 44.5842 14.6246V15.886H30.2774V13.1133H40.641C40.6334 12.3254 40.463 11.6246 40.1297 11.011C39.7963 10.3898 39.3304 9.90116 38.7319 9.5451C38.141 9.18904 37.4516 9.01101 36.6638 9.01101C35.8228 9.01101 35.0842 9.21555 34.4478 9.62464C33.8115 10.0262 33.3153 10.5565 32.9592 11.2156C32.6107 11.8671 32.4327 12.583 32.4251 13.3633V15.7837C32.4251 16.7989 32.6107 17.6701 32.9819 18.3974C33.3531 19.1171 33.8721 19.6701 34.5388 20.0565C35.2054 20.4353 35.9857 20.6246 36.8797 20.6246C37.4781 20.6246 38.0198 20.5413 38.5047 20.3746C38.9895 20.2004 39.41 19.9466 39.766 19.6133C40.1221 19.2799 40.391 18.8671 40.5728 18.3746L44.4138 18.8065C44.1713 19.8216 43.7092 20.708 43.0274 21.4656C42.3531 22.2156 41.4895 22.7989 40.4365 23.2156C39.3834 23.6246 38.1789 23.8292 36.8228 23.8292ZM54.5416 23.7951C53.1704 23.7951 51.9431 23.4428 50.8598 22.7383C49.7764 22.0337 48.9204 21.011 48.2916 19.6701C47.6628 18.3292 47.3484 16.7004 47.3484 14.7837C47.3484 12.8443 47.6666 11.208 48.303 9.87464C48.9469 8.53374 49.8143 7.52237 50.9052 6.84055C51.9961 6.15116 53.212 5.80646 54.553 5.80646C55.5757 5.80646 56.4166 5.98071 57.0757 6.32919C57.7348 6.6701 58.2575 7.08298 58.6439 7.56783C59.0302 8.0451 59.3295 8.49586 59.5416 8.9201H59.712V0.215553H63.837V23.4883H59.7916V20.7383H59.5416C59.3295 21.1625 59.0227 21.6133 58.6211 22.0906C58.2196 22.5603 57.6893 22.9618 57.0302 23.2951C56.3711 23.6284 55.5416 23.7951 54.5416 23.7951ZM55.6893 20.4201C56.5605 20.4201 57.303 20.1853 57.9166 19.7156C58.5302 19.2383 58.9961 18.5754 59.3143 17.7269C59.6325 16.8784 59.7916 15.8898 59.7916 14.761C59.7916 13.6322 59.6325 12.6512 59.3143 11.8178C59.0037 10.9845 58.5416 10.3368 57.928 9.87464C57.3219 9.41252 56.5757 9.18146 55.6893 9.18146C54.7727 9.18146 54.0075 9.4201 53.3939 9.89737C52.7802 10.3746 52.3181 11.0337 52.0075 11.8746C51.6969 12.7156 51.5416 13.6777 51.5416 14.761C51.5416 15.8519 51.6969 16.8254 52.0075 17.6815C52.3257 18.5299 52.7916 19.2004 53.4052 19.6928C54.0264 20.1777 54.7878 20.4201 55.6893 20.4201ZM68.4024 23.4883V0.215553H83.3115V3.74965H72.6183V10.0678H82.2888V13.6019H72.6183V23.4883H68.4024ZM91.0842 0.215553V23.4883H86.9706V0.215553H91.0842ZM102.928 23.8292C101.223 23.8292 99.7461 23.4542 98.4961 22.7042C97.2461 21.9542 96.2764 20.9049 95.587 19.5565C94.9052 18.208 94.5643 16.6322 94.5643 14.8292C94.5643 13.0262 94.9052 11.4466 95.587 10.0906C96.2764 8.73449 97.2461 7.68146 98.4961 6.93146C99.7461 6.18146 101.223 5.80646 102.928 5.80646C104.633 5.80646 106.11 6.18146 107.36 6.93146C108.61 7.68146 109.576 8.73449 110.258 10.0906C110.947 11.4466 111.292 13.0262 111.292 14.8292C111.292 16.6322 110.947 18.208 110.258 19.5565C109.576 20.9049 108.61 21.9542 107.36 22.7042C106.11 23.4542 104.633 23.8292 102.928 23.8292ZM102.951 20.5337C103.875 20.5337 104.648 20.2799 105.269 19.7724C105.89 19.2572 106.352 18.5678 106.655 17.7042C106.966 16.8406 107.121 15.8784 107.121 14.8178C107.121 13.7496 106.966 12.7837 106.655 11.9201C106.352 11.0489 105.89 10.3557 105.269 9.84055C104.648 9.3254 103.875 9.06783 102.951 9.06783C102.004 9.06783 101.216 9.3254 100.587 9.84055C99.9658 10.3557 99.4999 11.0489 99.1893 11.9201C98.8863 12.7837 98.7348 13.7496 98.7348 14.8178C98.7348 15.8784 98.8863 16.8406 99.1893 17.7042C99.4999 18.5678 99.9658 19.2572 100.587 19.7724C101.216 20.2799 102.004 20.5337 102.951 20.5337ZM117.885 23.4883L112.954 6.03374H117.147L120.215 18.3065H120.374L123.51 6.03374H127.658L130.794 18.2383H130.965L133.988 6.03374H138.192L133.249 23.4883H128.965L125.692 11.6928H125.454L122.181 23.4883H117.885Z" fill="#027CC0"/>
</svg>
