<svg width="191" height="105" viewBox="0 0 191 105" fill="none" xmlns="http://www.w3.org/2000/svg">
<path fill-rule="evenodd" clip-rule="evenodd" d="M10.5401 38.5582C9.35777 39.4085 8.28867 40.4138 7.3606 41.5455C11.1531 41.1834 15.9714 41.7747 21.5654 44.6517C27.5391 47.7238 32.3493 47.8276 35.697 47.1634C35.3933 46.2175 35.0108 45.3083 34.5579 44.444C30.7256 44.8598 25.8128 44.3095 20.0872 41.365C16.4514 39.4952 13.2465 38.7249 10.5401 38.5582ZM32.3193 41.1667C29.2929 37.6887 24.895 35.5 19.9999 35.5C18.5624 35.5 17.1676 35.6888 15.838 36.0436C17.6389 36.549 19.5519 37.2884 21.5654 38.3239C25.7574 40.4797 29.3765 41.1739 32.3193 41.1667ZM36.4128 50.4839C32.3684 51.3053 26.7836 51.1366 20.0872 47.6927C13.8268 44.4731 8.84406 44.5136 5.48352 45.2818C5.31006 45.3214 5.14068 45.363 4.9754 45.4064C4.53542 46.3906 4.18421 47.4256 3.93222 48.5003C4.20136 48.4264 4.47948 48.3561 4.76643 48.2904C8.84335 47.3586 14.6037 47.3991 21.5654 50.9794C27.8259 54.1991 32.8086 54.1585 36.1692 53.3904C36.2844 53.3641 36.3978 53.3369 36.5094 53.3088C36.5216 53.0408 36.5277 52.7711 36.5277 52.5C36.5277 51.8179 36.4887 51.1451 36.4128 50.4839ZM35.9697 56.8964C31.9647 57.6167 26.5425 57.3402 20.0872 54.0205C13.8268 50.8008 8.84406 50.8414 5.48352 51.6095C4.73758 51.78 4.06654 51.9876 3.47459 52.2068C3.47298 52.3043 3.47217 52.4021 3.47217 52.5C3.47217 61.8888 10.8719 69.5 19.9999 69.5C27.6499 69.5 34.086 64.1543 35.9697 56.8964Z" fill="#027CC0"/>
<path d="M48.8233 41.7273H53.9824L60.8915 58.5909H61.1642L68.0733 41.7273H73.2324V65H69.1869V49.0114H68.971L62.5392 64.9318H59.5165L53.0847 48.9773H52.8687V65H48.8233V41.7273ZM85.3687 65.3409C83.6187 65.3409 82.1074 64.9773 80.8347 64.25C79.5695 63.5152 78.596 62.4773 77.9142 61.1364C77.2324 59.7879 76.8915 58.2008 76.8915 56.375C76.8915 54.5795 77.2324 53.0038 77.9142 51.6477C78.6036 50.2841 79.5657 49.2235 80.8006 48.4659C82.0354 47.7008 83.4862 47.3182 85.1528 47.3182C86.2286 47.3182 87.2437 47.4924 88.1983 47.8409C89.1604 48.1818 90.0089 48.7121 90.7437 49.4318C91.4862 50.1515 92.0695 51.0682 92.4937 52.1818C92.918 53.2879 93.1301 54.6061 93.1301 56.1364V57.3977H78.8233V54.625H89.1869C89.1793 53.8371 89.0089 53.1364 88.6756 52.5227C88.3422 51.9015 87.8763 51.4129 87.2778 51.0568C86.6869 50.7008 85.9975 50.5227 85.2097 50.5227C84.3687 50.5227 83.6301 50.7273 82.9937 51.1364C82.3574 51.5379 81.8612 52.0682 81.5051 52.7273C81.1566 53.3788 80.9786 54.0947 80.971 54.875V57.2955C80.971 58.3106 81.1566 59.1818 81.5278 59.9091C81.899 60.6288 82.418 61.1818 83.0847 61.5682C83.7513 61.947 84.5316 62.1364 85.4256 62.1364C86.024 62.1364 86.5657 62.053 87.0506 61.8864C87.5354 61.7121 87.9559 61.4583 88.3119 61.125C88.668 60.7917 88.9369 60.3788 89.1187 59.8864L92.9597 60.3182C92.7172 61.3333 92.2551 62.2197 91.5733 62.9773C90.899 63.7273 90.0354 64.3106 88.9824 64.7273C87.9293 65.1364 86.7248 65.3409 85.3687 65.3409ZM103.087 65.3068C101.716 65.3068 100.489 64.9545 99.4057 64.25C98.3223 63.5455 97.4663 62.5227 96.8375 61.1818C96.2087 59.8409 95.8943 58.2121 95.8943 56.2955C95.8943 54.3561 96.2125 52.7197 96.8489 51.3864C97.4928 50.0455 98.3602 49.0341 99.4511 48.3523C100.542 47.6629 101.758 47.3182 103.099 47.3182C104.122 47.3182 104.962 47.4924 105.622 47.8409C106.281 48.1818 106.803 48.5947 107.19 49.0795C107.576 49.5568 107.875 50.0076 108.087 50.4318H108.258V41.7273H112.383V65H108.337V62.25H108.087C107.875 62.6742 107.569 63.125 107.167 63.6023C106.766 64.072 106.235 64.4735 105.576 64.8068C104.917 65.1402 104.087 65.3068 103.087 65.3068ZM104.235 61.9318C105.106 61.9318 105.849 61.697 106.462 61.2273C107.076 60.75 107.542 60.0871 107.86 59.2386C108.178 58.3902 108.337 57.4015 108.337 56.2727C108.337 55.1439 108.178 54.1629 107.86 53.3295C107.55 52.4962 107.087 51.8485 106.474 51.3864C105.868 50.9242 105.122 50.6932 104.235 50.6932C103.319 50.6932 102.553 50.9318 101.94 51.4091C101.326 51.8864 100.864 52.5455 100.553 53.3864C100.243 54.2273 100.087 55.1894 100.087 56.2727C100.087 57.3636 100.243 58.3371 100.553 59.1932C100.872 60.0417 101.337 60.7121 101.951 61.2045C102.572 61.6894 103.334 61.9318 104.235 61.9318ZM116.948 65V41.7273H131.857V45.2614H121.164V51.5795H130.835V55.1136H121.164V65H116.948ZM139.63 41.7273V65H135.516V41.7273H139.63ZM151.474 65.3409C149.769 65.3409 148.292 64.9659 147.042 64.2159C145.792 63.4659 144.822 62.4167 144.133 61.0682C143.451 59.7197 143.11 58.1439 143.11 56.3409C143.11 54.5379 143.451 52.9583 144.133 51.6023C144.822 50.2462 145.792 49.1932 147.042 48.4432C148.292 47.6932 149.769 47.3182 151.474 47.3182C153.178 47.3182 154.656 47.6932 155.906 48.4432C157.156 49.1932 158.122 50.2462 158.803 51.6023C159.493 52.9583 159.837 54.5379 159.837 56.3409C159.837 58.1439 159.493 59.7197 158.803 61.0682C158.122 62.4167 157.156 63.4659 155.906 64.2159C154.656 64.9659 153.178 65.3409 151.474 65.3409ZM151.497 62.0455C152.421 62.0455 153.194 61.7917 153.815 61.2841C154.436 60.7689 154.898 60.0795 155.201 59.2159C155.512 58.3523 155.667 57.3902 155.667 56.3295C155.667 55.2614 155.512 54.2955 155.201 53.4318C154.898 52.5606 154.436 51.8674 153.815 51.3523C153.194 50.8371 152.421 50.5795 151.497 50.5795C150.55 50.5795 149.762 50.8371 149.133 51.3523C148.512 51.8674 148.046 52.5606 147.735 53.4318C147.432 54.2955 147.281 55.2614 147.281 56.3295C147.281 57.3902 147.432 58.3523 147.735 59.2159C148.046 60.0795 148.512 60.7689 149.133 61.2841C149.762 61.7917 150.55 62.0455 151.497 62.0455ZM166.431 65L161.499 47.5455H165.693L168.761 59.8182H168.92L172.056 47.5455H176.204L179.34 59.75H179.511L182.534 47.5455H186.738L181.795 65H177.511L174.238 53.2045H173.999L170.727 65H166.431Z" fill="#027CC0"/>
</svg>
